PathFileType	4	(X/Y/Z)	D:\Share\Shared_Data\Ergonomics\Sit To Stand Pertubation\S1\Unperturbed_NoHarness.trc
DataRate	CameraRate	NumFrames	NumMarkers	Units	OrigDataRate	OrigDataStartFrame	OrigNumFrames	
100	100	16	18	m	100	1491	281
Frame#	Time	R_Thigh_Med			R_ASIS			R_Pelvis			V_Sacral			L_Pelvis			L_ASIS			Clavical			R_Acromium			L_Acromium			Sternum			Torso			R_Thigh_Lat			R_Thigh			R_Shank_Med			R_Shank_Lat			R_Shank			R_Heel			R_Toe			
		X1	Y1	Z1	X2	Y2	Z2	X3	Y3	Z3	X4	Y4	Z4	X5	Y5	Z5	X6	Y6	Z6	X7	Y7	Z7	X8	Y8	Z8	X9	Y9	Z9	X10	Y10	Z10	X11	Y11	Z11	X12	Y12	Z12	X13	Y13	Z13	X14	Y14	Z14	X15	Y15	Z15	X16	Y16	Z16	X17	Y17	Z17	X18	Y18	Z18	

1491	14.9	0.33563782	0.42268619	0.030649195	0.4709212	0.89549933	0.083730148	0.39013535	0.9072807	0.11708017	0.30243234	0.90125409	-0.027253227	0.40247562	0.90459369	-0.17670142	0.48917694	0.90196295	-0.11620083	0.45879678	1.2504969	-0.02414608	0.3886355	1.3206538	0.1232197	0.35073166	1.2736459	-0.22159766	0.44074991	1.2629794	0.078154816	0.45536145	1.255679	-0.084136459	0.35845352	0.4405351	0.15591022	0.45589819	0.59896722	0.096720963	0.31541519	0.1030228	0.071807625	0.29034155	0.10203782	0.15202231	0.31681113	0.31231482	0.17215181	0.24433427	0.033008308	0.092123062	0.44907742	0.050470741	0.12290585
1492	14.91	0.33577219	0.42242496	0.032240734	0.47112921	0.89541144	0.083703499	0.39030911	0.90721265	0.1168365	0.30289362	0.90116107	-0.027526157	0.40314413	0.90445172	-0.17681041	0.48978595	0.90190375	-0.11593135	0.45834854	1.2503871	-0.024299162	0.38789694	1.320395	0.12301524	0.350854	1.2728954	-0.22367546	0.44015698	1.2628218	0.077993561	0.45495401	1.255521	-0.084308434	0.35805103	0.44051682	0.15588809	0.45572473	0.59880157	0.096787498	0.31536292	0.10298724	0.071801567	0.29025345	0.10198443	0.15202425	0.31651489	0.31228995	0.17213727	0.24432883	0.032982162	0.092123573	0.44908035	0.050491528	0.12291092
1493	14.92	0.33613565	0.42209186	0.033993397	0.4712822	0.89535803	0.083678688	0.39044943	0.90717084	0.11662723	0.30329938	0.9010683	-0.027810978	0.40377527	0.90433246	-0.17692033	0.49035052	0.90188434	-0.11566988	0.45791293	1.2503013	-0.024447174	0.38718622	1.3201765	0.1228131	0.3509198	1.2722604	-0.22533324	0.43958063	1.2626962	0.077834625	0.45455984	1.2553893	-0.08447438	0.3577395	0.44050342	0.15583578	0.4555986	0.59867572	0.096828545	0.31533276	0.10295589	0.071784225	0.29018448	0.1019493	0.15201239	0.31627338	0.31227573	0.17208806	0.2443275	0.032964626	0.092120262	0.44908478	0.050509678	0.12291366
1494	14.93	0.33658853	0.4217728	0.035558468	0.47138544	0.89534222	0.083656448	0.39056027	0.90714606	0.11642915	0.30365732	0.90096808	-0.028113235	0.4043764	0.90423047	-0.17703232	0.49087582	0.90189709	-0.11543266	0.45748694	1.2502379	-0.024586796	0.38649893	1.3199994	0.12261205	0.35091757	1.2717623	-0.22652725	0.43901773	1.2626021	0.077680244	0.45417798	1.2552863	-0.084630867	0.35750665	0.44050272	0.15576888	0.45552377	0.59858905	0.09685746	0.31532477	0.10293163	0.071758736	0.29013126	0.10193404	0.15198988	0.31607785	0.31227524	0.17201208	0.24432971	0.032956505	0.092113342	0.44909012	0.050524723	0.1229143
1495	14.94	0.33704251	0.42151581	0.036753826	0.47144528	0.8953631	0.083637207	0.39064365	0.90712897	0.11623299	0.30397519	0.90085553	-0.028434948	0.40495279	0.90413916	-0.17714772	0.49136584	0.90193066	-0.11522923	0.45706631	1.2501943	-0.024714849	0.38582864	1.3198605	0.12241206	0.35084381	1.2714196	-0.22735497	0.43846356	1.2625369	0.077533005	0.45380725	1.25521	-0.084774696	0.35733652	0.44051712	0.15569962	0.45549896	0.59853754	0.096887886	0.31533676	0.10291599	0.071729134	0.29009012	0.10193758	0.15196028	0.31592001	0.31228964	0.1719185	0.24433456	0.032957439	0.092103714	0.44909573	0.05053648	0.12291341
1496	14.95	0.33745715	0.4213342	0.037546375	0.47146896	0.8954162	0.083621117	0.39069922	0.90711029	0.11603938	0.30425992	0.90072894	-0.028773914	0.40550677	0.90405243	-0.17726813	0.49182275	0.90197211	-0.11506226	0.4566467	1.2501655	-0.024828796	0.38516812	1.3197526	0.12221436	0.35069617	1.271246	-0.22797841	0.43791245	1.2624956	0.077395279	0.45344662	1.2551569	-0.084902946	0.35721286	0.4405441	0.15563577	0.45551849	0.59851453	0.096930771	0.31536533	0.10290905	0.071699577	0.29005811	0.10195638	0.15192673	0.31579227	0.31231754	0.17181621	0.24434097	0.032965725	0.092092575	0.4491011	0.050544899	0.12291171
1497	14.96	0.337819	0.42122052	0.037985241	0.4714642	0.89549353	0.08360775	0.39072354	0.90708197	0.11585387	0.30451697	0.90058832	-0.029124855	0.40603796	0.90396478	-0.17739455	0.49224707	0.90201001	-0.11492827	0.45622461	1.2501464	-0.024927027	0.38451053	1.3196654	0.12202074	0.35048969	1.2712235	-0.2285183	0.43735858	1.2624714	0.077269066	0.45309442	1.2551212	-0.085013351	0.35712103	0.44057837	0.15558115	0.45557373	0.59851123	0.096991943	0.31540649	0.10290942	0.071673447	0.29003384	0.10198505	0.15189075	0.31568796	0.31235489	0.17171303	0.24434785	0.032978462	0.092081139	0.44910544	0.050550026	0.12290976
1498	14.97	0.33812668	0.42115723	0.038154179	0.47143948	0.89558496	0.083596184	0.39071271	0.90704053	0.11568122	0.30475095	0.90043463	-0.02948119	0.40654437	0.90387231	-0.1775265	0.4926387	0.90203864	-0.11482115	0.45579819	1.2501304	-0.02500894	0.3838501	1.3195864	0.12183307	0.35026898	1.2712865	-0.22899265	0.43679761	1.2624562	0.077156181	0.45274887	1.2550961	-0.085104691	0.35704868	0.44061459	0.15553661	0.45565424	0.59851837	0.097070892	0.31545673	0.10291473	0.07165284	0.29001718	0.10201735	0.15185193	0.31560101	0.31239606	0.17161472	0.24435419	0.032992237	0.092070229	0.44910739	0.050551804	0.12290791
1499	14.98	0.33838226	0.421125	0.038141335	0.47140347	0.8956795	0.083585167	0.39066882	0.90698816	0.11552145	0.30496631	0.90026917	-0.029835554	0.40702393	0.90377307	-0.17766222	0.49299869	0.90205743	-0.11473763	0.45536682	1.2501106	-0.025074894	0.38318295	1.3195033	0.12165312	0.35008823	1.2713508	-0.22935812	0.43622678	1.2624418	0.077057953	0.45240848	1.2550735	-0.085177277	0.35698627	0.44064896	0.15550117	0.45574838	0.59852753	0.097161362	0.31551248	0.10292237	0.071638481	0.29000928	0.10204671	0.15180795	0.31552603	0.31243506	0.17152487	0.2443591	0.033003933	0.09206015	0.44910449	0.050549873	0.12290667
1500	14.99	0.33858789	0.42110706	0.038022755	0.47136517	0.89576678	0.083573296	0.39060825	0.9069306	0.11536894	0.30516766	0.90009485	-0.030180252	0.40747574	0.90366724	-0.17779924	0.49333084	0.9020697	-0.11468104	0.45493106	1.2500811	-0.025126047	0.38250659	1.3194069	0.12148222	0.34998566	1.2713503	-0.22957243	0.43564532	1.2624203	0.07697464	0.45207248	1.2550459	-0.085233047	0.35692645	0.44067938	0.15547234	0.45584439	0.59853137	0.097253288	0.31557095	0.10292992	0.071630005	0.29001239	0.10206641	0.15175536	0.31545834	0.31246713	0.17144475	0.244362	0.033011238	0.092050613	0.4490936	0.0505438	0.12290674
1501	15	0.33874542	0.42109164	0.037855934	0.47133261	0.89583771	0.083559166	0.39055927	0.90687421	0.11521515	0.30535953	0.89991577	-0.03050885	0.40790002	0.90355695	-0.17793507	0.49364255	0.90207898	-0.11465918	0.4544921	1.2500367	-0.025164089	0.38181985	1.3192921	0.1213212	0.34997775	1.2712438	-0.22961325	0.43505423	1.2623845	0.076905098	0.45174084	1.2550061	-0.085274872	0.35686435	0.44070483	0.15544662	0.45593103	0.59852399	0.097335533	0.31562964	0.10293546	0.071626419	0.29002948	0.10207031	0.15169064	0.31539471	0.31248849	0.17137386	0.24436255	0.033012508	0.092041061	0.4490719	0.050533985	0.12290845
1502	15.01	0.33885614	0.42107214	0.037679771	0.471311	0.89588593	0.083541161	0.39054242	0.90681976	0.11505576	0.30554532	0.89973639	-0.030817572	0.40829868	0.90344507	-0.17806807	0.49394415	0.90208527	-0.11467442	0.45405151	1.2499742	-0.025191103	0.38112268	1.3191577	0.12117062	0.35006039	1.2710176	-0.22948483	0.43445648	1.262328	0.076847153	0.45141394	1.2549493	-0.085305862	0.35679758	0.44072418	0.15542023	0.45599872	0.59850146	0.097398132	0.31568637	0.10293761	0.071626518	0.29006302	0.10205387	0.15161162	0.31533411	0.31249716	0.17131079	0.24436075	0.033006786	0.092031265	0.44903775	0.050522362	0.1229118
1503	15.02	0.33892023	0.42104636	0.037516991	0.47130246	0.89590759	0.083517586	0.39055496	0.90676044	0.11489475	0.30572714	0.89956116	-0.031105347	0.40867389	0.90333447	-0.17819809	0.49424808	0.90208411	-0.11471717	0.4536116	1.2498934	-0.025209402	0.38041693	1.3190065	0.12103071	0.35020621	1.2706913	-0.22923463	0.43385663	1.2622465	0.076798225	0.45109164	1.2548734	-0.085328644	0.3567265	0.4407355	0.15538998	0.45604089	0.59846179	0.09743383	0.31573904	0.10293538	0.071629311	0.29011407	0.10201463	0.15151888	0.3152778	0.31249231	0.17125427	0.24435677	0.032994213	0.09202179	0.44899072	0.050512287	0.12291674
1504	15.03	0.33893771	0.4210145	0.037377476	0.47130591	0.89590167	0.0834869	0.39057785	0.90668854	0.11473832	0.3059053	0.89939264	-0.031373224	0.40902725	0.90322748	-0.17832626	0.49456915	0.90207007	-0.1147722	0.45317596	1.2497937	-0.025221235	0.37970822	1.3188406	0.12090175	0.35035861	1.2703281	-0.22897443	0.43326059	1.262139	0.076755844	0.45077319	1.2547784	-0.085345268	0.35665451	0.44073611	0.15535382	0.45605493	0.59840515	0.097438705	0.31578494	0.10292772	0.071633881	0.29018115	0.1019523	0.15141699	0.315229	0.31247394	0.17120386	0.24435089	0.03297607	0.092013855	0.44893137	0.050508038	0.12292361
1505	15.04	0.33891052	0.42097778	0.037262291	0.47131824	0.89587024	0.083448029	0.39058972	0.90660211	0.11458736	0.30607849	0.8992326	-0.031623512	0.40935928	0.90312518	-0.17845453	0.49492477	0.90204114	-0.11482731	0.45274899	1.2496761	-0.025228354	0.37900626	1.318662	0.12078426	0.35043549	1.2700273	-0.22887334	0.4326741	1.2620089	0.076718063	0.45045816	1.2546669	-0.085357086	0.35658734	0.44072406	0.15531111	0.45604239	0.59833313	0.097412109	0.31582114	0.10291358	0.071639404	0.29026056	0.10186899	0.15131413	0.31519174	0.31244263	0.17115999	0.24434364	0.032954178	0.092008583	0.44886096	0.050513844	0.12293278
1506	15.05	0.33884473	0.4209375	0.03716782	0.4713353	0.89581744	0.08340065	0.3905722	0.9065058	0.11443776	0.30624384	0.8990816	-0.031858683	0.40966953	0.90302783	-0.17858476	0.49533377	0.9019986	-0.11487494	0.4523342	1.2495441	-0.02523181	0.37832156	1.318472	0.12067897	0.35036707	1.2698743	-0.22907346	0.43210248	1.2618624	0.076683472	0.45014752	1.2545426	-0.085364952	0.35653085	0.44069876	0.15526231	0.45600827	0.59824896	0.097356064	0.31584518	0.1028924	0.071645103	0.29034735	0.10176932	0.15122008	0.31517023	0.31239984	0.17112363	0.24433563	0.032930336	0.092006599	0.44878177	0.050532578	0.12294448
